<svg width="142" height="57" viewBox="0 0 142 57" fill="none" xmlns="http://www.w3.org/2000/svg">
<path d="M50.9788 24.768L49.9348 21.276H41.2588L40.2148 24.768H32.0788L41.1148 4.52995e-06H50.3668L59.4028 24.768H50.9788ZM42.9148 15.732H48.2788L45.6868 6.912H45.5428L42.9148 15.732ZM75.0239 5.328C77.5919 5.328 79.5719 6.168 80.9639 7.848C82.3559 9.528 83.0519 12.012 83.0519 15.3C83.0519 18.564 82.3559 21.036 80.9639 22.716C79.5719 24.372 77.5919 25.2 75.0239 25.2C72.8159 25.2 71.0399 24.48 69.6959 23.04V31.86H62.5319V5.76001H68.3639L68.9759 8.46001C70.3679 6.372 72.3839 5.328 75.0239 5.328ZM72.7919 10.62C71.7359 10.62 70.9439 10.992 70.4159 11.736C69.8879 12.48 69.6239 13.452 69.6239 14.652V15.84C69.6239 17.04 69.8879 18.024 70.4159 18.792C70.9439 19.536 71.7359 19.908 72.7919 19.908C74.8559 19.908 75.8879 18.672 75.8879 16.2V14.292C75.8879 11.844 74.8559 10.62 72.7919 10.62ZM99.0357 5.328C101.604 5.328 103.584 6.168 104.976 7.848C106.368 9.528 107.064 12.012 107.064 15.3C107.064 18.564 106.368 21.036 104.976 22.716C103.584 24.372 101.604 25.2 99.0357 25.2C96.8277 25.2 95.0517 24.48 93.7077 23.04V31.86H86.5437V5.76001H92.3757L92.9877 8.46001C94.3797 6.372 96.3957 5.328 99.0357 5.328ZM96.8037 10.62C95.7477 10.62 94.9557 10.992 94.4277 11.736C93.8997 12.48 93.6357 13.452 93.6357 14.652V15.84C93.6357 17.04 93.8997 18.024 94.4277 18.792C94.9557 19.536 95.7477 19.908 96.8037 19.908C98.8677 19.908 99.8997 18.672 99.8997 16.2V14.292C99.8997 11.844 98.8677 10.62 96.8037 10.62ZM-6.24657e-05 31H20.0159V36.94H7.95594V41.188H18.3239V46.876H7.95594V55.768H-6.24657e-05V31ZM33.8332 36.292C34.3852 36.292 34.8772 36.364 35.3092 36.508C35.7412 36.628 35.9572 36.7 35.9572 36.724V42.736H33.6532C32.1652 42.736 31.0852 43.12 30.4132 43.888C29.7652 44.656 29.4412 45.796 29.4412 47.308V55.768H22.2772V36.76H28.1452L28.6132 39.64C29.0452 38.536 29.7292 37.708 30.6652 37.156C31.6012 36.58 32.6572 36.292 33.8332 36.292ZM48.2669 36.328C51.1709 36.328 53.5349 36.82 55.3589 37.804C57.1829 38.764 58.0949 40.336 58.0949 42.52V49.936C58.0949 50.344 58.1909 50.68 58.3829 50.944C58.5749 51.208 58.8629 51.34 59.2469 51.34H60.5429V55.48C60.4709 55.528 60.2789 55.612 59.9669 55.732C59.6789 55.828 59.2589 55.924 58.7069 56.02C58.1549 56.14 57.5189 56.2 56.7989 56.2C55.4069 56.2 54.2549 55.996 53.3429 55.588C52.4549 55.156 51.8429 54.568 51.5069 53.824C50.5949 54.544 49.5749 55.12 48.4469 55.552C47.3189 55.984 45.9989 56.2 44.4869 56.2C40.0229 56.2 37.7909 54.424 37.7909 50.872C37.7909 49.024 38.2829 47.62 39.2669 46.66C40.2749 45.676 41.7149 45.004 43.5869 44.644C45.4589 44.284 47.9069 44.104 50.9309 44.104V43.168C50.9309 42.424 50.6669 41.86 50.1389 41.476C49.6349 41.092 48.9749 40.9 48.1589 40.9C47.4149 40.9 46.7669 41.032 46.2149 41.296C45.6869 41.56 45.4229 41.98 45.4229 42.556V42.7H38.3669C38.3429 42.58 38.3309 42.412 38.3309 42.196C38.3309 40.396 39.1829 38.968 40.8869 37.912C42.6149 36.856 45.0749 36.328 48.2669 36.328ZM50.9309 47.488C48.8909 47.488 47.3789 47.716 46.3949 48.172C45.4349 48.604 44.9549 49.192 44.9549 49.936C44.9549 51.136 45.7709 51.736 47.4029 51.736C48.3389 51.736 49.1549 51.484 49.8509 50.98C50.5709 50.476 50.9309 49.852 50.9309 49.108V47.488ZM88.1187 36.328C90.2787 36.328 91.8987 36.952 92.9787 38.2C94.0587 39.424 94.5987 41.176 94.5987 43.456V55.768H87.4347V44.32C87.4347 43.504 87.2307 42.856 86.8227 42.376C86.4387 41.872 85.8867 41.62 85.1667 41.62C84.3267 41.62 83.6427 41.908 83.1147 42.484C82.5867 43.06 82.3227 43.768 82.3227 44.608V55.768H75.1587V44.32C75.1587 43.504 74.9547 42.856 74.5467 42.376C74.1627 41.872 73.6107 41.62 72.8907 41.62C72.0507 41.62 71.3667 41.908 70.8387 42.484C70.3107 43.06 70.0467 43.768 70.0467 44.608V55.768H62.8827V36.76H68.7507L69.2187 39.604C69.9387 38.596 70.8867 37.804 72.0627 37.228C73.2627 36.628 74.5227 36.328 75.8427 36.328C78.6987 36.328 80.6187 37.42 81.6027 39.604C82.3467 38.596 83.2947 37.804 84.4467 37.228C85.6227 36.628 86.8467 36.328 88.1187 36.328ZM108.711 36.328C112.191 36.328 114.843 37.144 116.667 38.776C118.515 40.408 119.439 42.904 119.439 46.264V47.488H105.183C105.183 48.856 105.483 49.888 106.083 50.584C106.707 51.28 107.679 51.628 108.999 51.628C110.199 51.628 111.075 51.376 111.627 50.872C112.203 50.368 112.491 49.696 112.491 48.856H119.439C119.439 51.16 118.563 52.96 116.811 54.256C115.059 55.552 112.503 56.2 109.143 56.2C105.615 56.2 102.879 55.384 100.935 53.752C98.9907 52.096 98.0187 49.6 98.0187 46.264C98.0187 43 98.9667 40.528 100.863 38.848C102.759 37.168 105.375 36.328 108.711 36.328ZM108.999 40.9C106.743 40.9 105.483 41.968 105.219 44.104H112.203C112.203 43.12 111.915 42.34 111.339 41.764C110.787 41.188 110.007 40.9 108.999 40.9ZM131.93 36.328C134.474 36.328 136.622 36.832 138.374 37.84C140.15 38.824 141.038 40.36 141.038 42.448H134.378C134.378 41.752 134.066 41.26 133.442 40.972C133.01 40.732 132.47 40.612 131.822 40.612C130.094 40.612 129.23 41.02 129.23 41.836C129.23 42.292 129.53 42.616 130.13 42.808C130.73 43 131.714 43.204 133.082 43.42C134.762 43.66 136.166 43.948 137.294 44.284C138.422 44.596 139.406 45.172 140.246 46.012C141.086 46.828 141.506 47.98 141.506 49.468C141.506 51.892 140.594 53.62 138.77 54.652C136.97 55.684 134.606 56.2 131.678 56.2C129.998 56.2 128.414 55.972 126.926 55.516C125.438 55.036 124.226 54.304 123.29 53.32C122.354 52.336 121.886 51.088 121.886 49.576H128.546V49.72C128.57 50.536 128.906 51.112 129.554 51.448C130.226 51.76 130.934 51.916 131.678 51.916C133.67 51.916 134.666 51.448 134.666 50.512C134.666 50.032 134.354 49.684 133.73 49.468C133.106 49.252 132.086 49.024 130.67 48.784C128.966 48.496 127.562 48.184 126.458 47.848C125.378 47.512 124.43 46.948 123.614 46.156C122.798 45.34 122.39 44.212 122.39 42.772C122.39 40.444 123.266 38.788 125.018 37.804C126.794 36.82 129.098 36.328 131.93 36.328Z" fill="white"/>
</svg>
