<svg width="151" height="65" viewBox="0 0 151 65" fill="none" xmlns="http://www.w3.org/2000/svg">
<path d="M24.0888 1.33197H44.1048V7.27198H32.0448V11.52H42.4128V17.208H32.0448V26.1H24.0888V1.33197ZM48.1298 26.1V-2.52724e-05H55.2938V26.1H48.1298ZM69.2621 6.65997C72.1661 6.65997 74.5301 7.15197 76.3541 8.13598C78.1781 9.09597 79.0901 10.668 79.0901 12.852V20.268C79.0901 20.676 79.1861 21.012 79.3781 21.276C79.5701 21.54 79.8581 21.672 80.2421 21.672H81.5381V25.812C81.4661 25.86 81.2741 25.944 80.9621 26.064C80.6741 26.16 80.2541 26.256 79.7021 26.352C79.1501 26.472 78.5141 26.532 77.7941 26.532C76.4021 26.532 75.2501 26.328 74.3381 25.92C73.4501 25.488 72.8381 24.9 72.5021 24.156C71.5901 24.876 70.5701 25.452 69.4421 25.884C68.3141 26.316 66.9941 26.532 65.4821 26.532C61.0181 26.532 58.7861 24.756 58.7861 21.204C58.7861 19.356 59.2781 17.952 60.2621 16.992C61.2701 16.008 62.7101 15.336 64.5821 14.976C66.4541 14.616 68.9021 14.436 71.9261 14.436V13.5C71.9261 12.756 71.6621 12.192 71.1341 11.808C70.6301 11.424 69.9701 11.232 69.1541 11.232C68.4101 11.232 67.7621 11.364 67.2101 11.628C66.6821 11.892 66.4181 12.312 66.4181 12.888V13.032H59.3621C59.3381 12.912 59.3261 12.744 59.3261 12.528C59.3261 10.728 60.1781 9.29997 61.8821 8.24397C63.6101 7.18797 66.0701 6.65997 69.2621 6.65997ZM71.9261 17.82C69.8861 17.82 68.3741 18.048 67.3901 18.504C66.4301 18.936 65.9501 19.524 65.9501 20.268C65.9501 21.468 66.7661 22.068 68.3981 22.068C69.3341 22.068 70.1501 21.816 70.8461 21.312C71.5661 20.808 71.9261 20.184 71.9261 19.44V17.82ZM92.9138 6.65997C95.4578 6.65997 97.6058 7.16397 99.3578 8.17197C101.134 9.15597 102.022 10.692 102.022 12.78H95.3618C95.3618 12.084 95.0498 11.592 94.4258 11.304C93.9938 11.064 93.4538 10.944 92.8058 10.944C91.0778 10.944 90.2138 11.352 90.2138 12.168C90.2138 12.624 90.5138 12.948 91.1138 13.14C91.7138 13.332 92.6978 13.536 94.0658 13.752C95.7458 13.992 97.1498 14.28 98.2778 14.616C99.4058 14.928 100.39 15.504 101.23 16.344C102.07 17.16 102.49 18.312 102.49 19.8C102.49 22.224 101.578 23.952 99.7538 24.984C97.9538 26.016 95.5898 26.532 92.6618 26.532C90.9818 26.532 89.3978 26.304 87.9098 25.848C86.4218 25.368 85.2098 24.636 84.2738 23.652C83.3378 22.668 82.8698 21.42 82.8698 19.908H89.5298V20.052C89.5538 20.868 89.8898 21.444 90.5378 21.78C91.2098 22.092 91.9178 22.248 92.6618 22.248C94.6538 22.248 95.6498 21.78 95.6498 20.844C95.6498 20.364 95.3378 20.016 94.7138 19.8C94.0898 19.584 93.0698 19.356 91.6538 19.116C89.9498 18.828 88.5458 18.516 87.4418 18.18C86.3618 17.844 85.4138 17.28 84.5978 16.488C83.7818 15.672 83.3738 14.544 83.3738 13.104C83.3738 10.776 84.2498 9.11997 86.0018 8.13598C87.7778 7.15197 90.0818 6.65997 92.9138 6.65997ZM113.05 9.07197C113.818 8.30398 114.718 7.71598 115.75 7.30798C116.782 6.87597 117.862 6.65997 118.99 6.65997C121.198 6.65997 122.854 7.27197 123.958 8.49597C125.062 9.71997 125.614 11.484 125.614 13.788V26.1H118.45V14.652C118.45 13.836 118.234 13.188 117.802 12.708C117.394 12.204 116.806 11.952 116.038 11.952C115.15 11.952 114.43 12.24 113.878 12.816C113.326 13.392 113.05 14.1 113.05 14.94V26.1H105.886V-2.52724e-05H113.05V9.07197ZM12.8519 31.9C16.5239 31.9 19.4279 32.824 21.5639 34.672C23.6999 36.496 24.7679 39.112 24.7679 42.52H17.1719C17.1719 41.08 16.7879 39.94 16.0199 39.1C15.2759 38.26 14.2079 37.84 12.8159 37.84C11.2079 37.84 10.0199 38.344 9.25188 39.352C8.50788 40.36 8.13588 41.764 8.13588 43.564V45.868C8.13588 47.644 8.50788 49.048 9.25188 50.08C10.0199 51.088 11.1839 51.592 12.7439 51.592C14.2799 51.592 15.4439 51.196 16.2359 50.404C17.0279 49.612 17.4239 48.496 17.4239 47.056H24.7679C24.7679 50.44 23.7239 53.032 21.6359 54.832C19.5719 56.632 16.6439 57.532 12.8519 57.532C8.62788 57.532 5.42388 56.452 3.23988 54.292C1.07988 52.132 -0.000117123 48.94 -0.000117123 44.716C-0.000117123 40.492 1.07988 37.3 3.23988 35.14C5.42388 32.98 8.62788 31.9 12.8519 31.9ZM28.8114 57.1V31H35.9754V57.1H28.8114ZM49.9437 37.66C52.8477 37.66 55.2117 38.152 57.0357 39.136C58.8597 40.096 59.7717 41.668 59.7717 43.852V51.268C59.7717 51.676 59.8677 52.012 60.0597 52.276C60.2517 52.54 60.5397 52.672 60.9237 52.672H62.2197V56.812C62.1477 56.86 61.9557 56.944 61.6437 57.064C61.3557 57.16 60.9357 57.256 60.3837 57.352C59.8317 57.472 59.1957 57.532 58.4757 57.532C57.0837 57.532 55.9317 57.328 55.0197 56.92C54.1317 56.488 53.5197 55.9 53.1837 55.156C52.2717 55.876 51.2517 56.452 50.1237 56.884C48.9957 57.316 47.6757 57.532 46.1637 57.532C41.6997 57.532 39.4677 55.756 39.4677 52.204C39.4677 50.356 39.9597 48.952 40.9437 47.992C41.9517 47.008 43.3917 46.336 45.2637 45.976C47.1357 45.616 49.5837 45.436 52.6077 45.436V44.5C52.6077 43.756 52.3437 43.192 51.8157 42.808C51.3117 42.424 50.6517 42.232 49.8357 42.232C49.0917 42.232 48.4437 42.364 47.8917 42.628C47.3637 42.892 47.0997 43.312 47.0997 43.888V44.032H40.0437C40.0197 43.912 40.0077 43.744 40.0077 43.528C40.0077 41.728 40.8597 40.3 42.5637 39.244C44.2917 38.188 46.7517 37.66 49.9437 37.66ZM52.6077 48.82C50.5677 48.82 49.0557 49.048 48.0717 49.504C47.1117 49.936 46.6317 50.524 46.6317 51.268C46.6317 52.468 47.4477 53.068 49.0797 53.068C50.0157 53.068 50.8317 52.816 51.5277 52.312C52.2477 51.808 52.6077 51.184 52.6077 50.44V48.82ZM77.439 37.66C80.007 37.66 81.987 38.5 83.379 40.18C84.771 41.86 85.467 44.344 85.467 47.632C85.467 50.896 84.771 53.368 83.379 55.048C81.987 56.704 80.007 57.532 77.439 57.532C75.231 57.532 73.455 56.812 72.111 55.372V64.192H64.947V38.092H70.779L71.391 40.792C72.783 38.704 74.799 37.66 77.439 37.66ZM75.207 42.952C74.151 42.952 73.359 43.324 72.831 44.068C72.303 44.812 72.039 45.784 72.039 46.984V48.172C72.039 49.372 72.303 50.356 72.831 51.124C73.359 51.868 74.151 52.24 75.207 52.24C77.271 52.24 78.303 51.004 78.303 48.532V46.624C78.303 44.176 77.271 42.952 75.207 42.952ZM101.451 37.66C104.019 37.66 105.999 38.5 107.391 40.18C108.783 41.86 109.479 44.344 109.479 47.632C109.479 50.896 108.783 53.368 107.391 55.048C105.999 56.704 104.019 57.532 101.451 57.532C99.2427 57.532 97.4667 56.812 96.1227 55.372V64.192H88.9587V38.092H94.7907L95.4027 40.792C96.7947 38.704 98.8107 37.66 101.451 37.66ZM99.2187 42.952C98.1627 42.952 97.3707 43.324 96.8427 44.068C96.3147 44.812 96.0507 45.784 96.0507 46.984V48.172C96.0507 49.372 96.3147 50.356 96.8427 51.124C97.3707 51.868 98.1627 52.24 99.2187 52.24C101.283 52.24 102.315 51.004 102.315 48.532V46.624C102.315 44.176 101.283 42.952 99.2187 42.952ZM122.762 37.66C126.242 37.66 128.894 38.476 130.718 40.108C132.566 41.74 133.49 44.236 133.49 47.596V48.82H119.234C119.234 50.188 119.534 51.22 120.134 51.916C120.758 52.612 121.73 52.96 123.05 52.96C124.25 52.96 125.126 52.708 125.678 52.204C126.254 51.7 126.542 51.028 126.542 50.188H133.49C133.49 52.492 132.614 54.292 130.862 55.588C129.11 56.884 126.554 57.532 123.194 57.532C119.666 57.532 116.93 56.716 114.986 55.084C113.042 53.428 112.07 50.932 112.07 47.596C112.07 44.332 113.018 41.86 114.914 40.18C116.81 38.5 119.426 37.66 122.762 37.66ZM123.05 42.232C120.794 42.232 119.534 43.3 119.27 45.436H126.254C126.254 44.452 125.966 43.672 125.39 43.096C124.838 42.52 124.058 42.232 123.05 42.232ZM148.502 37.624C149.054 37.624 149.546 37.696 149.978 37.84C150.41 37.96 150.626 38.032 150.626 38.056V44.068H148.322C146.834 44.068 145.754 44.452 145.082 45.22C144.434 45.988 144.11 47.128 144.11 48.64V57.1H136.946V38.092H142.814L143.282 40.972C143.714 39.868 144.398 39.04 145.334 38.488C146.27 37.912 147.326 37.624 148.502 37.624Z" fill="white"/>
</svg>
