<svg width="322" height="315" viewBox="0 0 322 315" fill="none" xmlns="http://www.w3.org/2000/svg">
<g clip-path="url(#clip0_32_2)">
<path d="M160.646 123.876C183.56 123.876 202.137 142.416 202.137 165.287C202.137 188.157 183.56 206.697 160.646 206.697C137.731 206.697 119.154 188.157 119.154 165.287C119.154 142.416 137.731 123.876 160.646 123.876ZM154.617 180.505C150.714 179.856 147.939 180.973 147.214 185.107C147.603 187.327 147.91 188.24 149.652 189.708C151.671 190.041 153.247 189.905 155.326 189.708C157.302 187.736 157.302 187.736 157.454 183.337C156.346 181.612 156.346 181.611 154.617 180.505ZM173.058 179.797C168.86 179.188 165.805 179.888 164.901 184.399C165.384 186.809 166.07 187.603 168.093 189C170.567 189.304 172.241 189.473 174.432 188.204C175.185 186.877 175.185 186.876 175.451 184.797C175.152 182.361 174.946 181.378 173.058 179.797ZM143.269 167.056C139.452 166.294 137.041 165.478 134.758 169.18C134.294 171.902 134.551 173.074 135.955 175.462C137.595 176.966 137.595 176.966 139.368 177.32C141.516 176.891 142.479 176.446 143.979 174.842C144.917 171.764 144.702 169.917 143.269 167.056ZM184.405 165.64C181.826 165.211 180.658 165.307 178.466 166.747C176.897 169.095 177.01 170.659 177.312 173.427C178.731 175.551 178.731 175.551 180.191 175.858C182.768 175.862 184.503 176.031 186.577 174.4C187.438 172.223 187.581 170.794 187.242 168.472C186.09 166.791 186.09 166.79 184.405 165.64ZM146.815 147.944C144.253 147.246 142.624 146.939 140.121 147.9C138.698 149.775 138.658 151.334 138.786 153.648C139.108 155.598 139.611 156.591 141.141 157.854C143.553 158.361 144.511 157.958 146.638 156.704C148.574 154.664 148.942 153.569 148.942 150.775C148.233 149.139 148.234 149.138 146.815 147.944ZM179.529 147.325C176.589 147.207 175.681 147.876 173.767 150.068C173.368 152.191 173.368 152.191 173.767 154.315C174.919 155.996 174.919 155.996 176.604 157.146C179.183 157.575 180.351 157.48 182.544 156.041C184.115 153.688 184.056 152.128 183.696 149.36C181.569 147.944 181.568 147.944 179.529 147.325ZM165.256 138.034C161.951 137.667 158.914 137.271 156.744 140.158C156.39 142.109 156.422 143.865 156.744 145.82C157.453 147.235 157.454 147.236 158.872 147.944C161.767 148.219 163.656 148.321 166.319 147.192C167.909 145.142 167.91 145.141 167.384 140.865C166.675 139.14 166.674 139.14 165.256 138.034Z" fill="white"/>
<path d="M57.8887 69.1484C69.5885 69.2129 77.0519 70.1117 86.7461 77.1689L88.4854 78.1611C90.7975 79.6087 92.7404 81.3749 94.7246 83.2295L95.9541 84.375C101.222 89.3344 105.835 94.6778 110.184 100.451C112.817 103.923 115.65 107.202 118.584 110.424C122.395 114.721 125.492 119.987 125.428 125.893C124.779 128.496 122.894 129.832 120.95 131.583C118.298 134.114 116.376 137.096 114.406 140.169L113.409 141.712C108.698 149.539 107.606 157.416 107.338 166.389C107.078 171.35 107.078 171.351 105.731 173.262C103.651 175.105 101.521 176.061 98.8027 176.491C96.8672 176.849 87.2635 179.458 85.3271 179.809C85.0582 179.859 82.7769 180.351 80.4658 180.849C80.451 180.852 80.4358 180.855 80.4209 180.858L75.3975 181.933C61.8339 184.393 38.5164 179.455 36.3887 178.394L33.5518 176.978C33.534 176.968 30.7123 175.508 28.9414 174.279L27.3682 173.203C19.3962 167.386 14.238 160.004 11.8203 150.396C10.5489 141.748 11.7433 132.453 16.6631 125.082C17.3222 124.208 17.9853 123.336 18.6572 122.472L19.7217 121.41L20.7852 120.349C21.1398 119.995 22.8304 117.463 23.2676 116.809C23.9767 115.747 24.1432 115.491 24.332 115.039C24.4823 114.678 27.6771 105.604 28.3926 100.498C29.8262 90.3094 33.8807 80.9789 42.0625 74.3369C46.3102 71.586 50.5912 69.2183 55.7383 69.1689L57.8887 69.1484ZM75.3975 123.534C70.2572 123.537 66.8117 123.409 62.6309 126.719C62.5809 128.7 62.5717 128.712 63.3408 130.967C63.6967 133.445 73.9799 142.646 78.9443 144.416L81.4268 145.478L85.3271 147.247C87.1777 147.842 88.7297 147.976 90.6934 148.049L93.5283 148.044H93.6279C96.1983 148.059 98.4512 148.072 100.931 147.247C102.245 146.505 102.95 146.031 103.768 144.416C104.352 142.728 104.349 141.078 103.768 139.461C100.297 134.265 93.8384 128.488 89.9375 126.719L87.4551 125.304C85.6075 124.463 84.0727 123.903 82.042 123.716L79.6533 123.534H75.3975Z" fill="white"/>
<path d="M211.365 32.9484C215.935 44.1028 218.057 51.5461 215.365 63.4698L215.136 65.5054C214.711 68.2592 213.846 70.7833 212.915 73.3808L212.342 74.989C209.839 81.8991 206.722 88.3338 203.102 94.6809C200.933 98.5153 199.02 102.465 197.201 106.49C194.733 111.76 191.088 116.723 185.599 118.922C182.934 119.302 180.953 118.021 178.564 116.843C175.172 115.288 171.654 114.601 168.031 113.905L166.209 113.546C157.104 112.061 149.385 114.039 140.979 117.219C136.286 118.871 136.285 118.872 133.984 118.322C131.456 117.048 129.729 115.388 128.256 112.968C127.159 111.264 120.946 103.127 119.854 101.419C119.702 101.182 118.344 99.1993 116.968 97.1915C116.96 97.1787 116.951 97.1657 116.942 97.1528L113.96 92.7857C106.316 80.8249 101.658 56.7526 101.798 54.3217L101.985 51.081C101.985 51.081 102.22 47.8244 102.657 45.6624L103.03 43.7534C105.257 33.9424 110.044 26.2084 117.975 20.2299C125.472 15.7094 134.543 13.2874 143.309 15.1453C144.378 15.4376 145.447 15.7354 146.512 16.0436L147.916 16.6494L149.319 17.2542C149.787 17.4561 152.797 18.0955 153.575 18.2609C154.838 18.529 155.14 18.5892 155.633 18.5957C156.019 18.6008 165.684 18.1656 170.692 16.8909C180.685 14.3538 190.921 14.6397 200.303 19.88C204.528 22.8676 208.412 26.0331 210.495 30.9105L211.365 32.9484ZM168.814 72.4501L167.973 70.4266C165.936 65.5385 164.69 62.2128 159.975 59.503C158.123 60.2137 158.108 60.2086 156.328 61.8031C154.177 63.0888 149.734 76.3927 150.061 81.7928L150.062 84.561L149.968 88.9491C150.15 90.9371 150.641 92.4648 151.35 94.3606L152.476 97.0536L152.515 97.1496C153.518 99.6002 154.398 101.748 156.142 103.791C157.348 104.757 158.065 105.245 159.883 105.405C161.675 105.315 163.201 104.68 164.466 103.508C167.899 98.2176 170.686 89.8632 170.779 85.4754L171.106 82.5719C171.152 80.4929 171.064 78.8191 170.433 76.816L169.657 74.4741L168.814 72.4501Z" fill="white"/>
<path d="M303.003 167.822C294.461 175.801 288.421 180.267 276.52 181.79L274.573 182.263C271.896 182.798 269.269 182.847 266.551 182.861L264.869 182.872C257.627 182.883 250.596 182.166 243.462 180.955C239.158 180.24 234.843 179.801 230.493 179.473C224.765 178.965 218.889 177.265 214.869 172.93C213.547 170.594 213.996 168.331 214.201 165.726C214.385 162.068 213.728 158.584 213.041 155.001L212.703 153.196C210.734 144.279 206.102 137.807 200.117 131.106C196.889 127.323 196.889 127.323 196.551 125.011C196.793 122.245 197.682 120.091 199.359 117.914C200.518 116.327 205.697 107.844 206.862 106.26C207.023 106.039 208.341 104.117 209.677 102.17C209.685 102.158 209.694 102.145 209.703 102.132L212.612 97.9062C220.769 86.8152 241.105 74.408 243.382 73.7198L246.417 72.8023C246.417 72.8023 249.486 71.9226 251.625 71.5997L253.508 71.3025C263.305 70.0601 272.135 71.883 280.508 77.2035C287.388 82.6136 292.922 90.185 294.425 98.9141C294.548 100.001 294.666 101.089 294.773 102.178L294.732 103.68L294.691 105.18C294.677 105.68 295.192 108.679 295.325 109.454C295.541 110.712 295.597 111.011 295.772 111.469C295.909 111.831 299.84 120.617 302.837 124.818C308.812 133.202 312.293 142.761 310.925 153.198C309.734 158.11 308.255 162.766 304.551 166.332L303.003 167.822ZM252.831 140.328C256.562 136.8 259.153 134.529 259.91 129.257C258.582 127.784 258.581 127.768 256.469 126.658C254.505 125.102 240.699 125.471 235.874 127.591L233.339 128.523L229.287 129.914C227.533 130.751 226.313 131.718 224.837 133.012L222.782 134.96L222.709 135.029C220.831 136.781 219.187 138.317 217.954 140.616C217.51 142.057 217.324 142.885 217.843 144.619C218.58 146.246 219.719 147.444 221.255 148.219C227.354 149.612 236.024 149.377 240.076 147.987L242.855 147.313C244.776 146.656 246.275 146.01 247.879 144.753L249.74 143.247L252.831 140.328Z" fill="white"/>
<path d="M202.531 303.767C192.175 298.133 186.001 293.736 180.953 282.514L179.909 280.756C178.586 278.3 177.752 275.721 176.926 273.04L176.411 271.383C174.235 264.233 172.833 257.035 171.884 249.561C171.297 245.058 170.436 240.64 169.456 236.227C168.239 230.39 168.145 223.987 171.181 218.492C173.07 216.365 175.418 216.013 178.027 215.3C181.659 214.196 184.869 212.322 188.168 210.384L189.832 209.416C197.963 204.336 202.906 197.485 207.669 189.217C210.403 184.698 210.403 184.698 212.562 183.552C215.339 182.819 217.713 182.939 220.343 183.831C222.242 184.419 232.086 186.552 233.983 187.147C234.247 187.228 236.521 187.856 238.824 188.491C238.839 188.495 238.854 188.499 238.869 188.503L243.871 189.891C257.156 194.051 275.37 209.781 276.724 211.789L278.529 214.465C278.529 214.465 280.306 217.187 281.261 219.187L282.115 220.943C286.26 230.185 287.117 239.55 284.418 249.692C281.185 258.39 275.436 266.519 267.35 271.072C266.323 271.576 265.295 272.075 264.262 272.563L261.301 273.537C260.808 273.699 258.03 275.262 257.312 275.666C256.147 276.321 255.871 276.482 255.475 276.815C255.165 277.075 247.747 284.048 244.535 288.487C238.123 297.337 229.816 304.136 219.2 306.453C214.041 307.003 209.046 307.179 204.451 304.773L202.531 303.767ZM214.406 244.536C218.973 246.983 221.969 248.743 227.351 247.639C228.394 245.809 228.409 245.802 228.864 243.327C229.798 240.839 225.308 227.327 221.792 223.304L220.123 221.127L217.551 217.612C216.208 216.174 214.897 215.309 213.19 214.305L210.67 212.959L210.581 212.911C208.306 211.673 206.312 210.586 203.694 210.177C202.152 210.245 201.288 210.353 199.746 211.475C198.376 212.776 197.546 214.322 197.247 216.112C197.708 222.628 200.53 231.112 203.102 234.627L204.592 237.135C205.808 238.802 206.889 240.056 208.598 241.199L210.628 242.508L214.406 244.536Z" fill="white"/>
<path d="M29.8424 232.868C33.3114 221.572 36.4275 214.637 46.68 207.482L48.2316 206.112C50.4289 204.331 52.855 203.008 55.3856 201.673L56.9489 200.844C63.705 197.31 70.6753 194.53 78.0216 192.142C82.4446 190.688 86.7226 188.98 90.9701 187.157C96.6053 184.824 103.053 183.486 109.256 185.408C111.81 186.855 112.669 189.099 113.949 191.53C115.844 194.893 118.426 197.69 121.091 200.562L122.427 202.014C129.303 209.035 137.285 212.57 146.66 215.654C151.812 217.468 151.812 217.468 153.434 219.372C154.771 221.965 155.158 224.327 154.821 227.091C154.636 229.075 154.592 239.186 154.399 241.17C154.373 241.446 154.229 243.807 154.082 246.199C154.081 246.214 154.079 246.23 154.078 246.245L153.75 251.443C152.399 265.337 140.418 286.335 138.681 288.059L136.365 290.357C136.365 290.357 133.997 292.636 132.181 293.966L130.591 295.15C122.145 301.029 112.869 303.694 102.045 303.008C92.5641 301.515 83.1194 297.433 76.784 290.354C76.0545 289.441 75.329 288.525 74.6134 287.602L72.9952 284.876C72.7254 284.421 70.5499 281.99 69.9875 281.361C69.0753 280.341 68.8544 280.1 68.4328 279.774C68.0997 279.518 59.4662 273.569 54.2942 271.269C43.9772 266.675 35.3267 259.814 30.7079 249.809C29.0447 244.835 27.7951 239.949 29.2393 234.955L29.8424 232.868ZM92.2273 233.065C90.7365 238.037 89.6013 241.329 91.8719 246.415C93.9438 247.086 93.9541 247.099 96.5524 247.065C99.2659 247.502 111.947 240.454 115.254 236.21L117.094 234.142L120.092 230.927C121.256 229.325 121.848 227.866 122.496 225.99L123.313 223.247L123.344 223.15C124.106 220.669 124.775 218.495 124.627 215.837C124.227 214.332 123.933 213.502 122.469 212.202C120.861 211.105 119.122 210.588 117.25 210.642C110.768 212.363 102.807 216.791 99.8091 220.006L97.5965 221.962C96.1739 223.484 95.1381 224.791 94.3507 226.696L93.464 228.95L92.8461 231.008L92.2273 233.065Z" fill="white"/>
</g>
<defs>
<clipPath id="clip0_32_2">
<rect width="322" height="315" fill="white"/>
</clipPath>
</defs>
</svg>
