<svg width="1112" height="315" viewBox="0 0 1112 315" fill="none" xmlns="http://www.w3.org/2000/svg">
<path d="M376.616 104.16L375.208 75.744L413.736 34.4H441.64L403.24 76L389.16 90.72L376.616 104.16ZM353.96 124V34.4H379.048V124H353.96ZM414.12 124L384.936 87.008L401.448 69.344L443.56 124H414.12ZM449.058 124V29.024H473.378V124H449.058ZM489.183 124V54.624H513.503V124H489.183ZM501.343 46.944C496.906 46.944 493.322 45.7067 490.591 43.232C487.86 40.7573 486.495 37.6853 486.495 34.016C486.495 30.3467 487.86 27.2747 490.591 24.8C493.322 22.3253 496.906 21.088 501.343 21.088C505.78 21.088 509.364 22.2827 512.095 24.672C514.826 26.976 516.191 29.9627 516.191 33.632C516.191 37.472 514.826 40.672 512.095 43.232C509.45 45.7067 505.866 46.944 501.343 46.944ZM572.956 125.152C567.068 125.152 562.033 123.872 557.852 121.312C553.671 118.667 550.471 114.741 548.252 109.536C546.119 104.245 545.052 97.504 545.052 89.312C545.052 81.0347 546.076 74.2933 548.124 69.088C550.172 63.7973 553.244 59.872 557.34 57.312C561.521 54.752 566.727 53.472 572.956 53.472C579.271 53.472 584.988 54.9653 590.108 57.952C595.313 60.8533 599.409 64.992 602.396 70.368C605.468 75.6587 607.004 81.9733 607.004 89.312C607.004 96.6507 605.468 103.008 602.396 108.384C599.409 113.76 595.313 117.899 590.108 120.8C584.988 123.701 579.271 125.152 572.956 125.152ZM529.308 148.832V54.624H552.476V66.4L552.348 89.312L553.628 112.352V148.832H529.308ZM567.836 105.824C570.567 105.824 572.999 105.184 575.132 103.904C577.351 102.624 579.1 100.747 580.38 98.272C581.745 95.7973 582.428 92.8107 582.428 89.312C582.428 85.8133 581.745 82.8267 580.38 80.352C579.1 77.8773 577.351 76 575.132 74.72C572.999 73.44 570.567 72.8 567.836 72.8C565.105 72.8 562.631 73.44 560.412 74.72C558.279 76 556.529 77.8773 555.164 80.352C553.884 82.8267 553.244 85.8133 553.244 89.312C553.244 92.8107 553.884 95.7973 555.164 98.272C556.529 100.747 558.279 102.624 560.412 103.904C562.631 105.184 565.105 105.824 567.836 105.824ZM661.956 125.152C656.068 125.152 651.033 123.872 646.852 121.312C642.671 118.667 639.471 114.741 637.252 109.536C635.119 104.245 634.052 97.504 634.052 89.312C634.052 81.0347 635.076 74.2933 637.124 69.088C639.172 63.7973 642.244 59.872 646.34 57.312C650.521 54.752 655.727 53.472 661.956 53.472C668.271 53.472 673.988 54.9653 679.108 57.952C684.313 60.8533 688.409 64.992 691.396 70.368C694.468 75.6587 696.004 81.9733 696.004 89.312C696.004 96.6507 694.468 103.008 691.396 108.384C688.409 113.76 684.313 117.899 679.108 120.8C673.988 123.701 668.271 125.152 661.956 125.152ZM618.308 148.832V54.624H641.476V66.4L641.348 89.312L642.628 112.352V148.832H618.308ZM656.836 105.824C659.567 105.824 661.999 105.184 664.132 103.904C666.351 102.624 668.1 100.747 669.38 98.272C670.745 95.7973 671.428 92.8107 671.428 89.312C671.428 85.8133 670.745 82.8267 669.38 80.352C668.1 77.8773 666.351 76 664.132 74.72C661.999 73.44 659.567 72.8 656.836 72.8C654.105 72.8 651.631 73.44 649.412 74.72C647.279 76 645.529 77.8773 644.164 80.352C642.884 82.8267 642.244 85.8133 642.244 89.312C642.244 92.8107 642.884 95.7973 644.164 98.272C645.529 100.747 647.279 102.624 649.412 103.904C651.631 105.184 654.105 105.824 656.836 105.824ZM707.308 124V54.624H730.476V74.848L727.02 69.088C729.068 63.8827 732.396 60 737.004 57.44C741.612 54.7947 747.201 53.472 753.772 53.472V75.36C752.663 75.1893 751.681 75.104 750.828 75.104C750.06 75.0187 749.207 74.976 748.268 74.976C743.319 74.976 739.308 76.3413 736.236 79.072C733.164 81.7173 731.628 86.0693 731.628 92.128V124H707.308ZM797.999 125.152C790.404 125.152 783.663 123.616 777.775 120.544C771.887 117.472 767.236 113.248 763.823 107.872C760.495 102.411 758.831 96.1813 758.831 89.184C758.831 82.1867 760.495 76 763.823 70.624C767.236 65.248 771.887 61.0667 777.775 58.08C783.663 55.008 790.404 53.472 797.999 53.472C805.594 53.472 812.335 55.008 818.223 58.08C824.196 61.0667 828.847 65.248 832.175 70.624C835.503 76 837.167 82.1867 837.167 89.184C837.167 96.1813 835.503 102.411 832.175 107.872C828.847 113.248 824.196 117.472 818.223 120.544C812.335 123.616 805.594 125.152 797.999 125.152ZM797.999 105.824C800.815 105.824 803.29 105.184 805.423 103.904C807.642 102.624 809.391 100.747 810.671 98.272C811.951 95.712 812.591 92.6827 812.591 89.184C812.591 85.6853 811.951 82.7413 810.671 80.352C809.391 77.8773 807.642 76 805.423 74.72C803.29 73.44 800.815 72.8 797.999 72.8C795.268 72.8 792.794 73.44 790.575 74.72C788.442 76 786.692 77.8773 785.327 80.352C784.047 82.7413 783.407 85.6853 783.407 89.184C783.407 92.6827 784.047 95.712 785.327 98.272C786.692 100.747 788.442 102.624 790.575 103.904C792.794 105.184 795.268 105.824 797.999 105.824ZM873.649 125.152C867.761 125.152 862.001 124.469 856.369 123.104C850.822 121.739 846.342 120.032 842.929 117.984L850.225 101.344C853.468 103.307 857.265 104.885 861.617 106.08C865.969 107.189 870.236 107.744 874.417 107.744C878.513 107.744 881.329 107.317 882.865 106.464C884.486 105.611 885.297 104.459 885.297 103.008C885.297 101.643 884.529 100.661 882.993 100.064C881.542 99.3813 879.58 98.8693 877.105 98.528C874.716 98.1867 872.07 97.8027 869.169 97.376C866.268 96.9493 863.324 96.3947 860.337 95.712C857.436 94.944 854.748 93.8347 852.273 92.384C849.884 90.848 847.964 88.8 846.513 86.24C845.062 83.68 844.337 80.4373 844.337 76.512C844.337 72.0747 845.617 68.1493 848.177 64.736C850.822 61.2373 854.662 58.5067 859.697 56.544C864.732 54.496 870.876 53.472 878.129 53.472C882.993 53.472 887.9 53.984 892.849 55.008C897.884 55.9467 902.108 57.3973 905.521 59.36L898.225 75.872C894.812 73.9093 891.398 72.5867 887.985 71.904C884.572 71.136 881.329 70.752 878.257 70.752C874.161 70.752 871.26 71.2213 869.553 72.16C867.932 73.0987 867.121 74.2507 867.121 75.616C867.121 76.9813 867.846 78.048 869.297 78.816C870.748 79.4987 872.668 80.0533 875.057 80.48C877.532 80.8213 880.22 81.2053 883.121 81.632C886.022 81.9733 888.924 82.528 891.825 83.296C894.812 84.064 897.5 85.216 899.889 86.752C902.364 88.2027 904.326 90.208 905.777 92.768C907.228 95.2427 907.953 98.4427 907.953 102.368C907.953 106.635 906.63 110.475 903.985 113.888C901.425 117.301 897.585 120.032 892.465 122.08C887.43 124.128 881.158 125.152 873.649 125.152ZM385.448 281.792C378.109 281.792 371.027 280.896 364.2 279.104C357.459 277.227 351.955 274.837 347.688 271.936L356.008 253.248C360.019 255.808 364.627 257.941 369.832 259.648C375.123 261.269 380.371 262.08 385.576 262.08C389.075 262.08 391.891 261.781 394.024 261.184C396.157 260.501 397.693 259.648 398.632 258.624C399.656 257.515 400.168 256.235 400.168 254.784C400.168 252.736 399.229 251.115 397.352 249.92C395.475 248.725 393.043 247.744 390.056 246.976C387.069 246.208 383.741 245.44 380.072 244.672C376.488 243.904 372.861 242.923 369.192 241.728C365.608 240.533 362.323 238.997 359.336 237.12C356.349 235.157 353.917 232.64 352.04 229.568C350.163 226.411 349.224 222.443 349.224 217.664C349.224 212.288 350.675 207.424 353.576 203.072C356.563 198.72 361 195.221 366.888 192.576C372.776 189.931 380.115 188.608 388.904 188.608C394.792 188.608 400.552 189.291 406.184 190.656C411.901 191.936 416.979 193.856 421.416 196.416L413.608 215.232C409.341 212.928 405.117 211.221 400.936 210.112C396.755 208.917 392.701 208.32 388.776 208.32C385.277 208.32 382.461 208.704 380.328 209.472C378.195 210.155 376.659 211.093 375.72 212.288C374.781 213.483 374.312 214.848 374.312 216.384C374.312 218.347 375.208 219.925 377 221.12C378.877 222.229 381.309 223.168 384.296 223.936C387.368 224.619 390.696 225.344 394.28 226.112C397.949 226.88 401.576 227.861 405.16 229.056C408.829 230.165 412.157 231.701 415.144 233.664C418.131 235.541 420.52 238.059 422.312 241.216C424.189 244.288 425.128 248.171 425.128 252.864C425.128 258.069 423.635 262.891 420.648 267.328C417.747 271.68 413.352 275.179 407.464 277.824C401.661 280.469 394.323 281.792 385.448 281.792ZM466.659 281.152C457.784 281.152 450.872 278.976 445.923 274.624C440.974 270.187 438.499 263.531 438.499 254.656V195.136H462.819V254.4C462.819 256.875 463.502 258.837 464.867 260.288C466.232 261.653 467.982 262.336 470.115 262.336C473.016 262.336 475.491 261.611 477.539 260.16L483.555 277.184C481.507 278.549 478.99 279.531 476.003 280.128C473.016 280.811 469.902 281.152 466.659 281.152ZM428.387 231.36V213.184H478.691V231.36H428.387ZM522.117 281.152C516.485 281.152 511.408 280.043 506.885 277.824C502.448 275.605 498.949 272.149 496.389 267.456C493.914 262.677 492.677 256.661 492.677 249.408V210.624H516.997V245.44C516.997 250.816 517.978 254.656 519.941 256.96C521.989 259.264 524.848 260.416 528.517 260.416C530.906 260.416 533.082 259.861 535.045 258.752C537.008 257.643 538.586 255.893 539.781 253.504C540.976 251.029 541.573 247.872 541.573 244.032V210.624H565.893V280H542.725V260.416L547.205 265.92C544.816 271.04 541.36 274.88 536.837 277.44C532.314 279.915 527.408 281.152 522.117 281.152ZM611.766 281.152C605.451 281.152 599.691 279.701 594.486 276.8C589.366 273.813 585.27 269.675 582.198 264.384C579.126 259.008 577.59 252.608 577.59 245.184C577.59 237.845 579.126 231.531 582.198 226.24C585.27 220.864 589.366 216.725 594.486 213.824C599.691 210.923 605.451 209.472 611.766 209.472C617.739 209.472 622.774 210.752 626.87 213.312C631.051 215.872 634.209 219.797 636.342 225.088C638.475 230.379 639.542 237.077 639.542 245.184C639.542 253.461 638.518 260.245 636.47 265.536C634.422 270.827 631.35 274.752 627.254 277.312C623.158 279.872 617.995 281.152 611.766 281.152ZM616.886 261.824C619.617 261.824 622.049 261.184 624.182 259.904C626.401 258.624 628.15 256.747 629.43 254.272C630.71 251.712 631.35 248.683 631.35 245.184C631.35 241.685 630.71 238.741 629.43 236.352C628.15 233.877 626.401 232 624.182 230.72C622.049 229.44 619.617 228.8 616.886 228.8C614.07 228.8 611.553 229.44 609.334 230.72C607.201 232 605.494 233.877 604.214 236.352C602.934 238.741 602.294 241.685 602.294 245.184C602.294 248.683 602.934 251.712 604.214 254.272C605.494 256.747 607.201 258.624 609.334 259.904C611.553 261.184 614.07 261.824 616.886 261.824ZM632.118 280V268.096L632.246 245.184L630.966 222.272V185.024H655.286V280H632.118ZM670.933 280V210.624H695.253V280H670.933ZM683.093 202.944C678.656 202.944 675.072 201.707 672.341 199.232C669.61 196.757 668.245 193.685 668.245 190.016C668.245 186.347 669.61 183.275 672.341 180.8C675.072 178.325 678.656 177.088 683.093 177.088C687.53 177.088 691.114 178.283 693.845 180.672C696.576 182.976 697.941 185.963 697.941 189.632C697.941 193.472 696.576 196.672 693.845 199.232C691.2 201.707 687.616 202.944 683.093 202.944ZM745.874 281.152C738.279 281.152 731.538 279.616 725.65 276.544C719.762 273.472 715.111 269.248 711.698 263.872C708.37 258.411 706.706 252.181 706.706 245.184C706.706 238.187 708.37 232 711.698 226.624C715.111 221.248 719.762 217.067 725.65 214.08C731.538 211.008 738.279 209.472 745.874 209.472C753.469 209.472 760.21 211.008 766.098 214.08C772.071 217.067 776.722 221.248 780.05 226.624C783.378 232 785.042 238.187 785.042 245.184C785.042 252.181 783.378 258.411 780.05 263.872C776.722 269.248 772.071 273.472 766.098 276.544C760.21 279.616 753.469 281.152 745.874 281.152ZM745.874 261.824C748.69 261.824 751.165 261.184 753.298 259.904C755.517 258.624 757.266 256.747 758.546 254.272C759.826 251.712 760.466 248.683 760.466 245.184C760.466 241.685 759.826 238.741 758.546 236.352C757.266 233.877 755.517 232 753.298 230.72C751.165 229.44 748.69 228.8 745.874 228.8C743.143 228.8 740.669 229.44 738.45 230.72C736.317 232 734.567 233.877 733.202 236.352C731.922 238.741 731.282 241.685 731.282 245.184C731.282 248.683 731.922 251.712 733.202 254.272C734.567 256.747 736.317 258.624 738.45 259.904C740.669 261.184 743.143 261.824 745.874 261.824ZM821.524 281.152C815.636 281.152 809.876 280.469 804.244 279.104C798.697 277.739 794.217 276.032 790.804 273.984L798.1 257.344C801.343 259.307 805.14 260.885 809.492 262.08C813.844 263.189 818.111 263.744 822.292 263.744C826.388 263.744 829.204 263.317 830.74 262.464C832.361 261.611 833.172 260.459 833.172 259.008C833.172 257.643 832.404 256.661 830.868 256.064C829.417 255.381 827.455 254.869 824.98 254.528C822.591 254.187 819.945 253.803 817.044 253.376C814.143 252.949 811.199 252.395 808.212 251.712C805.311 250.944 802.623 249.835 800.148 248.384C797.759 246.848 795.839 244.8 794.388 242.24C792.937 239.68 792.212 236.437 792.212 232.512C792.212 228.075 793.492 224.149 796.052 220.736C798.697 217.237 802.537 214.507 807.572 212.544C812.607 210.496 818.751 209.472 826.004 209.472C830.868 209.472 835.775 209.984 840.724 211.008C845.759 211.947 849.983 213.397 853.396 215.36L846.1 231.872C842.687 229.909 839.273 228.587 835.86 227.904C832.447 227.136 829.204 226.752 826.132 226.752C822.036 226.752 819.135 227.221 817.428 228.16C815.807 229.099 814.996 230.251 814.996 231.616C814.996 232.981 815.721 234.048 817.172 234.816C818.623 235.499 820.543 236.053 822.932 236.48C825.407 236.821 828.095 237.205 830.996 237.632C833.897 237.973 836.799 238.528 839.7 239.296C842.687 240.064 845.375 241.216 847.764 242.752C850.239 244.203 852.201 246.208 853.652 248.768C855.103 251.243 855.828 254.443 855.828 258.368C855.828 262.635 854.505 266.475 851.86 269.888C849.3 273.301 845.46 276.032 840.34 278.08C835.305 280.128 829.033 281.152 821.524 281.152ZM893.958 280L933.51 190.4H958.47L998.15 280H971.782L940.806 202.816H950.79L919.814 280H893.958ZM915.59 262.592L922.118 243.904H965.894L972.422 262.592H915.59ZM1005.34 280V190.4H1051.16C1062.94 190.4 1071.72 192.576 1077.53 196.928C1083.33 201.195 1086.23 206.827 1086.23 213.824C1086.23 218.432 1084.99 222.485 1082.52 225.984C1080.13 229.397 1076.72 232.128 1072.28 234.176C1067.93 236.139 1062.72 237.12 1056.66 237.12L1059.22 230.976C1065.54 230.976 1071.04 231.957 1075.74 233.92C1080.43 235.797 1084.06 238.571 1086.62 242.24C1089.26 245.824 1090.58 250.219 1090.58 255.424C1090.58 263.189 1087.43 269.248 1081.11 273.6C1074.88 277.867 1065.75 280 1053.72 280H1005.34ZM1030.42 261.696H1051.67C1056.02 261.696 1059.31 260.971 1061.53 259.52C1063.83 257.984 1064.98 255.68 1064.98 252.608C1064.98 249.536 1063.83 247.275 1061.53 245.824C1059.31 244.288 1056.02 243.52 1051.67 243.52H1028.63V225.984H1047.83C1052.1 225.984 1055.3 225.259 1057.43 223.808C1059.56 222.357 1060.63 220.181 1060.63 217.28C1060.63 214.379 1059.56 212.245 1057.43 210.88C1055.3 209.429 1052.1 208.704 1047.83 208.704H1030.42V261.696Z" fill="white"/>
<g clip-path="url(#clip0_34_31)">
<path d="M160.646 123.876C183.56 123.876 202.137 142.416 202.137 165.287C202.137 188.157 183.56 206.697 160.646 206.697C137.731 206.697 119.154 188.157 119.154 165.287C119.154 142.416 137.731 123.876 160.646 123.876ZM154.617 180.505C150.714 179.856 147.939 180.973 147.214 185.107C147.603 187.327 147.91 188.24 149.652 189.708C151.671 190.041 153.247 189.905 155.326 189.708C157.302 187.736 157.302 187.736 157.454 183.337C156.346 181.612 156.346 181.611 154.617 180.505ZM173.058 179.797C168.86 179.188 165.805 179.888 164.901 184.399C165.384 186.809 166.07 187.603 168.093 189C170.567 189.304 172.241 189.473 174.432 188.204C175.185 186.877 175.185 186.876 175.451 184.797C175.152 182.361 174.946 181.378 173.058 179.797ZM143.269 167.056C139.452 166.294 137.041 165.478 134.758 169.18C134.294 171.902 134.551 173.074 135.955 175.462C137.595 176.966 137.595 176.966 139.368 177.32C141.516 176.891 142.479 176.446 143.979 174.842C144.917 171.764 144.702 169.917 143.269 167.056ZM184.405 165.64C181.826 165.211 180.658 165.307 178.466 166.747C176.897 169.095 177.01 170.659 177.312 173.427C178.731 175.551 178.731 175.551 180.191 175.858C182.768 175.862 184.503 176.031 186.577 174.4C187.438 172.223 187.581 170.794 187.242 168.472C186.09 166.791 186.09 166.79 184.405 165.64ZM146.815 147.944C144.253 147.246 142.624 146.939 140.121 147.9C138.698 149.775 138.658 151.334 138.786 153.648C139.108 155.598 139.611 156.591 141.141 157.854C143.553 158.361 144.511 157.958 146.638 156.704C148.574 154.664 148.942 153.569 148.942 150.775C148.233 149.139 148.234 149.138 146.815 147.944ZM179.529 147.325C176.589 147.207 175.681 147.876 173.767 150.068C173.368 152.191 173.368 152.191 173.767 154.315C174.919 155.996 174.919 155.996 176.604 157.146C179.183 157.575 180.351 157.48 182.544 156.041C184.115 153.688 184.056 152.128 183.696 149.36C181.569 147.944 181.568 147.944 179.529 147.325ZM165.256 138.034C161.951 137.667 158.914 137.271 156.744 140.158C156.39 142.109 156.422 143.865 156.744 145.82C157.453 147.235 157.454 147.236 158.872 147.944C161.767 148.219 163.656 148.321 166.319 147.192C167.909 145.142 167.91 145.141 167.384 140.865C166.675 139.14 166.674 139.14 165.256 138.034Z" fill="white"/>
<path d="M57.8887 69.1484C69.5886 69.2129 77.052 70.1117 86.7462 77.1689L88.4854 78.1611C90.7976 79.6087 92.7405 81.3749 94.7247 83.2295L95.9542 84.375C101.222 89.3344 105.835 94.6778 110.184 100.451C112.817 103.923 115.65 107.202 118.584 110.424C122.395 114.721 125.492 119.987 125.428 125.893C124.779 128.496 122.894 129.832 120.95 131.583C118.298 134.114 116.376 137.096 114.406 140.169L113.409 141.712C108.698 149.539 107.606 157.416 107.338 166.389C107.078 171.35 107.078 171.351 105.732 173.262C103.651 175.105 101.521 176.061 98.8028 176.491C96.8672 176.849 87.2636 179.458 85.3272 179.809C85.0583 179.859 82.777 180.351 80.4659 180.849C80.451 180.852 80.4358 180.855 80.421 180.858L75.3975 181.933C61.8339 184.393 38.5165 179.455 36.3887 178.394L33.5518 176.978C33.5341 176.968 30.7123 175.508 28.9415 174.279L27.3682 173.203C19.3963 167.386 14.2381 160.004 11.8204 150.396C10.5489 141.748 11.7434 132.453 16.6631 125.082C17.3223 124.208 17.9854 123.336 18.6573 122.472L19.7217 121.41L20.7852 120.349C21.1398 119.995 22.8305 117.463 23.2676 116.809C23.9767 115.747 24.1433 115.491 24.3321 115.039C24.4823 114.678 27.6772 105.604 28.3926 100.498C29.8263 90.3094 33.8808 80.9789 42.0626 74.3369C46.3103 71.586 50.5912 69.2183 55.7383 69.1689L57.8887 69.1484ZM75.3975 123.534C70.2573 123.537 66.8117 123.409 62.6309 126.719C62.5809 128.7 62.5718 128.712 63.3409 130.967C63.6968 133.445 73.98 142.646 78.9444 144.416L81.4268 145.478L85.3272 147.247C87.1777 147.842 88.7298 147.976 90.6934 148.049L93.5284 148.044H93.628C96.1984 148.059 98.4512 148.072 100.931 147.247C102.245 146.505 102.95 146.031 103.768 144.416C104.352 142.728 104.349 141.078 103.768 139.461C100.297 134.265 93.8384 128.488 89.9376 126.719L87.4551 125.304C85.6075 124.463 84.0728 123.903 82.0421 123.716L79.6534 123.534H75.3975Z" fill="white"/>
<path d="M211.365 32.9484C215.935 44.1028 218.057 51.5461 215.365 63.4698L215.136 65.5054C214.711 68.2592 213.846 70.7833 212.915 73.3808L212.342 74.989C209.839 81.8991 206.722 88.3338 203.102 94.6809C200.933 98.5153 199.02 102.465 197.201 106.49C194.733 111.76 191.088 116.723 185.599 118.922C182.934 119.302 180.952 118.021 178.564 116.843C175.172 115.288 171.654 114.601 168.031 113.905L166.209 113.546C157.104 112.061 149.385 114.039 140.979 117.219C136.286 118.871 136.285 118.872 133.984 118.322C131.456 117.048 129.729 115.388 128.256 112.968C127.159 111.264 120.946 103.127 119.854 101.419C119.702 101.182 118.344 99.1993 116.968 97.1915C116.96 97.1787 116.951 97.1657 116.942 97.1528L113.96 92.7857C106.316 80.8249 101.658 56.7526 101.798 54.3217L101.984 51.081C101.984 51.081 102.219 47.8244 102.657 45.6624L103.03 43.7534C105.257 33.9424 110.044 26.2084 117.975 20.2299C125.472 15.7094 134.543 13.2873 143.309 15.1453C144.378 15.4376 145.447 15.7354 146.512 16.0436L147.916 16.6494L149.319 17.2542C149.787 17.4561 152.797 18.0955 153.575 18.2609C154.838 18.529 155.14 18.5892 155.633 18.5957C156.019 18.6008 165.684 18.1656 170.692 16.8909C180.685 14.3538 190.92 14.6397 200.303 19.88C204.528 22.8676 208.412 26.0331 210.495 30.9105L211.365 32.9484ZM168.814 72.4501L167.973 70.4266C165.936 65.5385 164.69 62.2128 159.975 59.503C158.123 60.2137 158.108 60.2086 156.328 61.8031C154.177 63.0888 149.734 76.3927 150.061 81.7928L150.062 84.561L149.968 88.9491C150.15 90.937 150.64 92.4648 151.35 94.3606L152.476 97.0536L152.515 97.1496C153.518 99.6002 154.398 101.748 156.142 103.791C157.348 104.757 158.065 105.245 159.883 105.405C161.675 105.315 163.201 104.68 164.466 103.508C167.899 98.2176 170.686 89.8632 170.779 85.4754L171.106 82.5719C171.152 80.4929 171.064 78.8191 170.433 76.816L169.656 74.4741L168.814 72.4501Z" fill="white"/>
<path d="M303.003 167.822C294.461 175.801 288.421 180.267 276.52 181.79L274.573 182.263C271.896 182.798 269.269 182.847 266.551 182.861L264.869 182.872C257.627 182.883 250.597 182.166 243.462 180.955C239.159 180.24 234.843 179.801 230.493 179.473C224.765 178.965 218.889 177.265 214.869 172.93C213.547 170.594 213.996 168.331 214.201 165.726C214.385 162.067 213.728 158.584 213.041 155.001L212.703 153.196C210.734 144.279 206.102 137.807 200.117 131.106C196.889 127.323 196.889 127.323 196.551 125.011C196.793 122.245 197.682 120.091 199.359 117.914C200.519 116.327 205.697 107.844 206.862 106.26C207.023 106.039 208.341 104.117 209.677 102.17C209.685 102.158 209.694 102.145 209.703 102.132L212.612 97.9061C220.769 86.8151 241.106 74.408 243.382 73.7198L246.418 72.8022C246.418 72.8022 249.486 71.9225 251.625 71.5996L253.509 71.3025C263.305 70.06 272.135 71.8829 280.508 77.2034C287.388 82.6135 292.922 90.1849 294.425 98.914C294.548 100.001 294.666 101.089 294.773 102.178L294.732 103.679L294.691 105.18C294.677 105.68 295.192 108.679 295.325 109.454C295.541 110.712 295.597 111.011 295.772 111.469C295.909 111.831 299.84 120.617 302.837 124.817C308.812 133.202 312.293 142.761 310.925 153.198C309.734 158.11 308.255 162.766 304.551 166.332L303.003 167.822ZM252.831 140.328C256.562 136.8 259.153 134.529 259.91 129.257C258.582 127.784 258.581 127.768 256.469 126.658C254.505 125.102 240.699 125.471 235.874 127.591L233.339 128.523L229.287 129.914C227.533 130.751 226.313 131.718 224.837 133.012L222.782 134.96L222.709 135.029C220.832 136.781 219.187 138.316 217.954 140.616C217.51 142.057 217.324 142.885 217.843 144.619C218.58 146.246 219.719 147.443 221.255 148.219C227.355 149.612 236.024 149.377 240.076 147.987L242.855 147.313C244.776 146.656 246.276 146.01 247.879 144.753L249.74 143.247L252.831 140.328Z" fill="white"/>
<path d="M202.531 303.767C192.175 298.133 186.001 293.736 180.953 282.514L179.909 280.756C178.586 278.3 177.752 275.721 176.926 273.04L176.411 271.383C174.235 264.233 172.833 257.035 171.884 249.561C171.297 245.058 170.436 240.64 169.456 236.227C168.239 230.39 168.145 223.987 171.181 218.492C173.07 216.365 175.418 216.013 178.027 215.3C181.659 214.196 184.869 212.322 188.168 210.384L189.831 209.416C197.963 204.336 202.906 197.485 207.669 189.217C210.403 184.698 210.403 184.698 212.562 183.552C215.339 182.819 217.713 182.939 220.343 183.831C222.242 184.418 232.086 186.552 233.983 187.147C234.247 187.228 236.521 187.856 238.824 188.491C238.839 188.495 238.854 188.498 238.869 188.503L243.871 189.891C257.156 194.051 275.37 209.781 276.724 211.789L278.529 214.465C278.529 214.465 280.306 217.187 281.261 219.187L282.115 220.943C286.26 230.185 287.117 239.55 284.418 249.692C281.185 258.39 275.436 266.519 267.35 271.072C266.323 271.576 265.295 272.075 264.262 272.563L261.301 273.537C260.808 273.699 258.03 275.262 257.312 275.666C256.147 276.321 255.871 276.481 255.475 276.815C255.165 277.075 247.747 284.048 244.535 288.487C238.123 297.337 229.816 304.136 219.2 306.453C214.041 307.003 209.046 307.179 204.451 304.772L202.531 303.767ZM214.406 244.536C218.973 246.983 221.969 248.743 227.351 247.638C228.394 245.809 228.409 245.802 228.864 243.327C229.798 240.839 225.308 227.327 221.792 223.304L220.123 221.127L217.551 217.612C216.208 216.173 214.897 215.309 213.19 214.305L210.67 212.959L210.581 212.911C208.306 211.673 206.312 210.586 203.694 210.177C202.152 210.245 201.288 210.353 199.746 211.475C198.376 212.775 197.546 214.322 197.247 216.112C197.708 222.628 200.53 231.112 203.102 234.627L204.591 237.135C205.808 238.802 206.889 240.056 208.598 241.199L210.628 242.508L214.406 244.536Z" fill="white"/>
<path d="M29.8424 232.869C33.3114 221.573 36.4274 214.637 46.68 207.483L48.2316 206.112C50.4288 204.331 52.855 203.008 55.3856 201.673L56.9488 200.844C63.7049 197.31 70.6752 194.53 78.0216 192.142C82.4446 190.688 86.7226 188.981 90.97 187.157C96.6052 184.824 103.053 183.486 109.255 185.408C111.81 186.855 112.669 189.099 113.949 191.53C115.844 194.893 118.426 197.69 121.091 200.562L122.427 202.014C129.303 209.035 137.285 212.571 146.66 215.655C151.812 217.468 151.812 217.468 153.434 219.373C154.771 221.965 155.158 224.327 154.821 227.091C154.636 229.076 154.592 239.187 154.399 241.17C154.373 241.446 154.229 243.807 154.082 246.199C154.081 246.214 154.079 246.23 154.078 246.245L153.75 251.443C152.399 265.337 140.418 286.335 138.681 288.059L136.365 290.357C136.365 290.357 133.997 292.636 132.181 293.966L130.591 295.15C122.145 301.029 112.869 303.695 102.045 303.008C92.5641 301.515 83.1193 297.433 76.784 290.354C76.0544 289.441 75.3289 288.525 74.6134 287.603L72.9952 284.876C72.7254 284.422 70.5498 281.99 69.9875 281.361C69.0753 280.341 68.8543 280.1 68.4327 279.775C68.0997 279.518 59.4661 273.57 54.2941 271.27C43.9772 266.675 35.3267 259.814 30.7079 249.81C29.0447 244.835 27.795 239.949 29.2392 234.955L29.8424 232.869ZM92.2272 233.065C90.7365 238.037 89.6012 241.33 91.8719 246.415C93.9437 247.087 93.954 247.1 96.5524 247.066C99.2658 247.502 111.946 240.454 115.254 236.21L117.094 234.143L120.092 230.927C121.256 229.325 121.848 227.866 122.496 225.99L123.313 223.247L123.344 223.15C124.106 220.669 124.775 218.495 124.627 215.837C124.227 214.332 123.933 213.502 122.469 212.202C120.861 211.105 119.122 210.589 117.25 210.642C110.768 212.363 102.807 216.791 99.8091 220.007L97.5965 221.962C96.1739 223.484 95.138 224.792 94.3507 226.697L93.464 228.95L92.8461 231.008L92.2272 233.065Z" fill="white"/>
</g>
<defs>
<clipPath id="clip0_34_31">
<rect width="322" height="315" fill="white"/>
</clipPath>
</defs>
</svg>
