<svg width="983" height="679" viewBox="0 0 983 679" fill="none" xmlns="http://www.w3.org/2000/svg">
<path d="M16.3952 313.558V0.000284178H121.077V99.3259L202.874 0.000284178H321.188L212.612 129.513L329.952 313.558H218.942L148.342 195.73L121.077 227.378V313.558H16.3952ZM484.928 318.427C455.715 318.427 429.585 313.558 406.539 303.82C383.493 294.082 365.315 279.8 352.007 260.973C339.023 242.147 332.531 218.939 332.531 191.348V0.000284178H437.213V179.176C437.213 212.934 453.118 229.812 484.928 229.812C516.738 229.812 532.643 212.934 532.643 179.176V0.000284178H637.325V191.348C637.325 218.939 630.671 242.147 617.362 260.973C604.379 279.8 586.364 294.082 563.317 303.82C540.596 313.558 514.466 318.427 484.928 318.427ZM673.982 313.558V0.000284178H818.589C851.373 0.000284178 879.45 5.35609 902.821 16.0677C926.191 26.4547 944.206 43.3335 956.865 66.7043C969.525 89.7504 975.854 120.424 975.854 158.727C975.854 212.934 962.059 252.372 934.468 277.041C906.878 301.385 868.251 313.558 818.589 313.558H673.982ZM778.664 233.708H805.929C819.238 233.708 830.599 231.76 840.012 227.865C849.425 223.97 856.566 216.666 861.435 205.955C866.628 195.243 869.225 179.501 869.225 158.727C869.225 137.953 866.953 122.21 862.409 111.498C857.864 100.787 850.886 93.4832 841.472 89.5881C832.059 85.3684 820.212 83.2585 805.929 83.2585H778.664V233.708ZM164.083 678.427C129.027 678.427 99.3263 673.071 74.9818 662.359C50.6372 651.648 31.9731 634.444 18.9894 610.749C6.33023 587.053 0.000653155 555.892 0.000653155 517.266C0.000653155 477.99 6.33023 446.504 18.9894 422.809C31.9731 399.114 50.6372 381.91 74.9818 371.199C99.3263 360.487 129.027 355.131 164.083 355.131C199.139 355.131 228.839 360.487 253.184 371.199C277.528 381.91 296.03 399.114 308.689 422.809C321.673 446.504 328.165 477.99 328.165 517.266C328.165 555.892 321.673 587.053 308.689 610.749C296.03 634.444 277.528 651.648 253.184 662.359C228.839 673.071 199.139 678.427 164.083 678.427ZM164.083 589.812C184.207 589.812 198.652 584.132 207.416 572.771C216.505 561.411 221.049 542.909 221.049 517.266C221.049 490.325 216.505 471.498 207.416 460.787C198.652 449.75 184.207 444.232 164.083 444.232C143.633 444.232 128.864 449.75 119.776 460.787C111.012 471.498 106.63 490.325 106.63 517.266C106.63 542.909 111.012 561.411 119.776 572.771C128.864 584.132 143.633 589.812 164.083 589.812ZM357.313 673.558V360H526.751C553.043 360 574.629 365.031 591.508 375.094C608.711 384.832 621.37 398.302 629.485 415.506C637.924 432.709 642.144 452.347 642.144 474.42C642.144 495.518 636.788 514.182 626.077 530.412C615.365 546.317 601.895 558.976 585.665 568.389C591.832 573.258 597.026 580.399 601.245 589.812L637.762 673.558H528.699L496.564 601.011C494.292 596.142 491.857 592.734 489.261 590.786C486.664 588.839 482.606 587.865 477.088 587.865H461.995V673.558H357.313ZM461.995 507.041H500.459C523.83 507.041 535.515 496.167 535.515 474.42C535.515 452.347 524.641 441.311 502.894 441.311H461.995V507.041ZM818.341 678.427C783.285 678.427 753.585 673.071 729.241 662.359C704.896 651.648 686.232 634.444 673.248 610.749C660.589 587.053 654.259 555.892 654.259 517.266C654.259 477.99 660.589 446.504 673.248 422.809C686.232 399.114 704.896 381.91 729.241 371.199C753.585 360.487 783.285 355.131 818.341 355.131C853.398 355.131 883.098 360.487 907.442 371.199C931.787 381.91 950.289 399.114 962.948 422.809C975.932 446.504 982.423 477.99 982.423 517.266C982.423 555.892 975.932 587.053 962.948 610.749C950.289 634.444 931.787 651.648 907.442 662.359C883.098 673.071 853.398 678.427 818.341 678.427ZM818.341 589.812C838.466 589.812 852.911 584.132 861.675 572.771C870.763 561.411 875.308 542.909 875.308 517.266C875.308 490.325 870.763 471.498 861.675 460.787C852.911 449.75 838.466 444.232 818.341 444.232C797.892 444.232 783.123 449.75 774.034 460.787C765.27 471.498 760.888 490.325 760.888 517.266C760.888 542.909 765.27 561.411 774.034 572.771C783.123 584.132 797.892 589.812 818.341 589.812Z" fill="white"/>
</svg>
